<svg width="121" height="49" viewBox="0 0 121 49" fill="none" xmlns="http://www.w3.org/2000/svg">
<path d="M43.3768 14.6394C44.5869 14.6394 45.5679 13.655 45.5679 12.4407C45.5679 11.2264 44.5869 10.2421 43.3768 10.2421C42.1666 10.2421 41.1856 11.2264 41.1856 12.4407C41.1856 13.655 42.1666 14.6394 43.3768 14.6394Z" fill="white"/>
<path d="M43.3768 3.6143C44.3468 3.6143 45.1331 2.82526 45.1331 1.85192C45.1331 0.878584 44.3468 0.0895386 43.3768 0.0895386C42.4067 0.0895386 41.6204 0.878584 41.6204 1.85192C41.6204 2.82526 42.4067 3.6143 43.3768 3.6143Z" fill="white"/>
<path d="M43.3768 25.7279C44.8079 25.7279 45.9681 24.5637 45.9681 23.1276C45.9681 21.6916 44.8079 20.5274 43.3768 20.5274C41.9456 20.5274 40.7854 21.6916 40.7854 23.1276C40.7854 24.5637 41.9456 25.7279 43.3768 25.7279Z" fill="white"/>
<path d="M43.3768 36.7038C45.0417 36.7038 46.3914 35.3494 46.3914 33.6788C46.3914 32.0082 45.0417 30.6539 43.3768 30.6539C41.7118 30.6539 40.3621 32.0082 40.3621 33.6788C40.3621 35.3494 41.7118 36.7038 43.3768 36.7038Z" fill="white"/>
<path d="M32.7176 25.3263C33.9277 25.3263 34.9087 24.3419 34.9087 23.1277C34.9087 21.9134 33.9277 20.929 32.7176 20.929C31.5074 20.929 30.5264 21.9134 30.5264 23.1277C30.5264 24.3419 31.5074 25.3263 32.7176 25.3263Z" fill="white"/>
<path d="M32.7176 14.203C33.6876 14.203 34.4739 13.414 34.4739 12.4407C34.4739 11.4673 33.6876 10.6783 32.7176 10.6783C31.7475 10.6783 30.9612 11.4673 30.9612 12.4407C30.9612 13.414 31.7475 14.203 32.7176 14.203Z" fill="white"/>
<path d="M32.7176 36.2791C34.1487 36.2791 35.3089 35.1149 35.3089 33.6788C35.3089 32.2428 34.1487 31.0786 32.7176 31.0786C31.2864 31.0786 30.1262 32.2428 30.1262 33.6788C30.1262 35.1149 31.2864 36.2791 32.7176 36.2791Z" fill="white"/>
<path d="M21.9461 35.8775C23.1562 35.8775 24.1372 34.8931 24.1372 33.6788C24.1372 32.4645 23.1562 31.4802 21.9461 31.4802C20.7359 31.4802 19.7549 32.4645 19.7549 33.6788C19.7549 34.8931 20.7359 35.8775 21.9461 35.8775Z" fill="white"/>
<path d="M21.9461 24.8901C22.9161 24.8901 23.7025 24.101 23.7025 23.1277C23.7025 22.1543 22.9161 21.3653 21.9461 21.3653C20.9761 21.3653 20.1897 22.1543 20.1897 23.1277C20.1897 24.101 20.9761 24.8901 21.9461 24.8901Z" fill="white"/>
<path d="M11.7447 35.4412C12.7147 35.4412 13.5011 34.6522 13.5011 33.6788C13.5011 32.7055 12.7147 31.9164 11.7447 31.9164C10.7747 31.9164 9.98832 32.7055 9.98832 33.6788C9.98832 34.6522 10.7747 35.4412 11.7447 35.4412Z" fill="white"/>
<path d="M21.9461 47.7143C23.3773 47.7143 24.5375 46.5502 24.5375 45.1141C24.5375 43.678 23.3773 42.5139 21.9461 42.5139C20.5149 42.5139 19.3547 43.678 19.3547 45.1141C19.3547 46.5502 20.5149 47.7143 21.9461 47.7143Z" fill="white"/>
<path d="M32.7176 48.1391C34.3825 48.1391 35.7322 46.7847 35.7322 45.1141C35.7322 43.4435 34.3825 42.0892 32.7176 42.0892C31.0526 42.0892 29.7029 43.4435 29.7029 45.1141C29.7029 46.7847 31.0526 48.1391 32.7176 48.1391Z" fill="white"/>
<path d="M43.3768 48.6013C45.2961 48.6013 46.8521 47.04 46.8521 45.1141C46.8521 43.1882 45.2961 41.6269 43.3768 41.6269C41.4574 41.6269 39.9014 43.1882 39.9014 45.1141C39.9014 47.04 41.4574 48.6013 43.3768 48.6013Z" fill="white"/>
<path d="M11.7447 47.3128C12.9548 47.3128 13.9358 46.3284 13.9358 45.1141C13.9358 43.8998 12.9548 42.9155 11.7447 42.9155C10.5346 42.9155 9.55354 43.8998 9.55354 45.1141C9.55354 46.3284 10.5346 47.3128 11.7447 47.3128Z" fill="white"/>
<path d="M1.75638 46.8764C2.7264 46.8764 3.51275 46.0874 3.51275 45.1141C3.51275 44.1407 2.7264 43.3517 1.75638 43.3517C0.786357 43.3517 0 44.1407 0 45.1141C0 46.0874 0.786357 46.8764 1.75638 46.8764Z" fill="white"/>
<path d="M21.9461 47.7143C23.3773 47.7143 24.5375 46.5502 24.5375 45.1141C24.5375 43.678 23.3773 42.5139 21.9461 42.5139C20.5149 42.5139 19.3547 43.678 19.3547 45.1141C19.3547 46.5502 20.5149 47.7143 21.9461 47.7143Z" fill="white"/>
<path d="M56.5122 0H74.1479V3.69522H60.7131V7.84404H72.6132V11.311H60.7131V17.0893H74.4272V20.7817H56.5122V0Z" fill="white"/>
<path d="M87.1509 3.69522H79.5063V0H98.9963V3.69522H91.3518V20.7817H87.1509V3.69522Z" fill="white"/>
<path d="M104.755 0H108.956V17.0864H121V20.7817H104.755V0Z" fill="white"/>
<path d="M60.0566 31.301L59.7283 30.3158H57.7128L57.3817 31.301H56.541L58.2513 26.4126H59.1813L60.8887 31.301H60.0566ZM57.9749 29.5675H59.4721L58.7379 27.3545L57.9749 29.5675Z" fill="white"/>
<path d="M64.5138 28.7673C64.7147 28.873 64.8829 29.0319 65.0004 29.2267C65.1192 29.4328 65.18 29.6675 65.176 29.9056C65.1805 30.0914 65.1461 30.276 65.0752 30.4477C65.0043 30.6194 64.8984 30.7742 64.7643 30.9024C64.6316 31.0325 64.4743 31.1348 64.3018 31.2032C64.1293 31.2717 63.9449 31.3049 63.7594 31.3011H61.7439V26.4126H63.6183C63.7994 26.4086 63.9794 26.4407 64.148 26.5072C64.3166 26.5736 64.4703 26.6731 64.6001 26.7998C64.7307 26.924 64.8338 27.0743 64.9027 27.241C64.9717 27.4078 65.0049 27.5872 65.0004 27.7676C65.0073 27.9616 64.9665 28.1542 64.8816 28.3285C64.7968 28.5029 64.6704 28.6536 64.5138 28.7673ZM63.6097 27.158H62.5126V28.4437H63.6097C63.6906 28.4451 63.7708 28.4293 63.8452 28.3974C63.9197 28.3656 63.9865 28.3183 64.0416 28.2588C64.1549 28.1334 64.2176 27.9702 64.2176 27.8009C64.2176 27.6316 64.1549 27.4684 64.0416 27.3429C63.9865 27.2834 63.9197 27.2362 63.8452 27.2043C63.7708 27.1725 63.6906 27.1567 63.6097 27.158ZM63.7594 30.5383C63.8443 30.5385 63.9282 30.5205 64.0056 30.4857C64.0831 30.4508 64.1522 30.3998 64.2086 30.3361C64.3269 30.2023 64.3923 30.0296 64.3923 29.8507C64.3923 29.6718 64.3269 29.4991 64.2086 29.3653C64.1513 29.3014 64.0811 29.2505 64.0026 29.2161C63.9242 29.1818 63.8392 29.1647 63.7536 29.166H62.5069V30.5355L63.7594 30.5383Z" fill="white"/>
<path d="M69.1178 26.4126V27.1811H67.7904V31.301H67.0159V27.1811H65.6799V26.4126H69.1178Z" fill="white"/>
<path d="M73.7103 30.6568C73.4853 30.8878 73.2165 31.0713 72.9199 31.1966C72.6232 31.3219 72.3046 31.3865 71.9827 31.3865C71.6608 31.3865 71.3421 31.3219 71.0455 31.1966C70.7488 31.0713 70.4801 30.8878 70.2551 30.6568C69.7983 30.1701 69.544 29.5268 69.544 28.8583C69.544 28.1898 69.7983 27.5465 70.2551 27.0598C70.4801 26.8288 70.7488 26.6453 71.0455 26.52C71.3421 26.3947 71.6608 26.3301 71.9827 26.3301C72.3046 26.3301 72.6232 26.3947 72.9199 26.52C73.2165 26.6453 73.4853 26.8288 73.7103 27.0598C74.167 27.5465 74.4214 28.1898 74.4214 28.8583C74.4214 29.5268 74.167 30.1701 73.7103 30.6568ZM70.7849 30.1107C70.9405 30.2689 71.1259 30.3946 71.3303 30.4803C71.5346 30.566 71.754 30.6102 71.9755 30.6102C72.197 30.6102 72.4163 30.566 72.6207 30.4803C72.8251 30.3946 73.0105 30.2689 73.1661 30.1107C73.4758 29.7671 73.6473 29.3202 73.6473 28.8569C73.6473 28.3935 73.4758 27.9466 73.1661 27.603C73.0105 27.4448 72.8251 27.3192 72.6207 27.2334C72.4163 27.1477 72.197 27.1035 71.9755 27.1035C71.754 27.1035 71.5346 27.1477 71.3303 27.2334C71.1259 27.3192 70.9405 27.4448 70.7849 27.603C70.4751 27.9466 70.3036 28.3935 70.3036 28.8569C70.3036 29.3202 70.4751 29.7671 70.7849 30.1107Z" fill="white"/>
<path d="M79.9785 26.4126V31.301H79.204V27.8167L77.7643 30.2754H77.6693L76.2296 27.8081V31.301H75.4551V26.4126H76.3016L77.724 28.8568L79.1637 26.4126H79.9785Z" fill="white"/>
<path d="M84.332 31.301L84.0038 30.3158H81.9883L81.6572 31.301H80.8222L82.5325 26.4126H83.4625L85.1699 31.301H84.332ZM82.2503 29.5675H83.7475L82.9989 27.3602L82.2503 29.5675Z" fill="white"/>
<path d="M88.7431 26.4126V27.1811H87.4129V31.301H86.6384V27.1811H85.3052V26.4126H88.7431Z" fill="white"/>
<path d="M92.4833 31.301V27.9843L90.2576 31.301H89.653V26.4126H90.4275V29.7293L92.6532 26.4126H93.2579V31.301H92.4833Z" fill="white"/>
<path d="M97.0672 26.4126H97.8417V31.301H97.0672V29.4231C96.7429 29.5759 96.3889 29.6548 96.0307 29.6542C95.6082 29.6726 95.1953 29.5255 94.8789 29.244C94.7323 29.1052 94.6173 28.9363 94.5418 28.7488C94.4663 28.5613 94.432 28.3597 94.4413 28.1576V26.4242H95.2158V28.0854C95.21 28.1948 95.227 28.3043 95.2656 28.4067C95.3043 28.5092 95.3638 28.6025 95.4404 28.6806C95.5217 28.7554 95.6171 28.813 95.7209 28.8503C95.8247 28.8875 95.935 28.9035 96.0451 28.8973C96.401 28.9009 96.7525 28.8187 97.0701 28.6575L97.0672 26.4126Z" fill="white"/>
<path d="M99.912 30.5325H102.002V31.301H99.1374V26.4126H101.971V27.1811H99.912V28.4523H101.801V29.2122H99.912V30.5325Z" fill="white"/>
<path d="M105.224 31.3935C104.895 31.4024 104.568 31.342 104.264 31.2161C103.96 31.0901 103.686 30.9016 103.459 30.6626C103.007 30.1706 102.756 29.526 102.756 28.8568C102.756 28.1877 103.007 27.5431 103.459 27.0511C103.839 26.6695 104.332 26.4224 104.864 26.3473C105.396 26.2723 105.938 26.3733 106.408 26.6351C106.764 26.8407 107.057 27.1405 107.254 27.5018L106.58 27.9063C106.455 27.6656 106.264 27.4654 106.03 27.3285C105.786 27.1856 105.507 27.1117 105.224 27.1147C104.997 27.1058 104.77 27.1455 104.559 27.2312C104.348 27.3169 104.158 27.4465 104.001 27.6116C103.698 27.9599 103.531 28.4063 103.531 28.8684C103.531 29.3304 103.698 29.7769 104.001 30.1252C104.158 30.2902 104.348 30.4199 104.559 30.5056C104.77 30.5913 104.997 30.631 105.224 30.6221C105.508 30.6251 105.788 30.5512 106.033 30.4083C106.269 30.2745 106.459 30.0734 106.58 29.8305L107.254 30.2292C107.058 30.59 106.768 30.8899 106.413 31.0959C106.051 31.3004 105.64 31.4032 105.224 31.3935Z" fill="white"/>
<path d="M111.792 31.3011H110.868L109.008 28.9897V31.3011H108.23V26.4126H109.008V28.6026L110.799 26.4097H111.717L109.808 28.7904L111.792 31.3011Z" fill="white"/>
<path d="M115.809 31.301L115.477 30.3158H113.462L113.131 31.301H112.293L114.021 26.4126H114.951L116.655 31.301H115.809ZM113.724 29.5675H115.221L114.473 27.3602L113.724 29.5675Z" fill="white"/>
<path d="M120.775 26.4126V31.3011H120.001V29.5213H119.252L118.115 31.3011H117.237L118.437 29.4491C118.128 29.3543 117.859 29.1592 117.672 28.8944C117.479 28.6305 117.378 28.311 117.384 27.9843C117.378 27.7789 117.413 27.5744 117.487 27.3828C117.561 27.1912 117.673 27.0166 117.815 26.8691C117.953 26.722 118.119 26.6054 118.304 26.5268C118.489 26.4482 118.689 26.4093 118.889 26.4126H120.775ZM118.889 28.8019H120.001V27.158H118.889C118.79 27.1566 118.691 27.1771 118.6 27.2181C118.509 27.259 118.428 27.3193 118.363 27.3949C118.225 27.5558 118.149 27.7607 118.149 27.9728C118.149 28.1848 118.225 28.3897 118.363 28.5506C118.427 28.6283 118.507 28.6911 118.598 28.7345C118.689 28.7779 118.789 28.8009 118.889 28.8019Z" fill="white"/>
<path d="M60.4655 34.7941V39.6825H59.688V35.5626H57.7589V39.6825H56.9844V34.7941H60.4655Z" fill="white"/>
<path d="M65.6828 39.0382C65.4575 39.2714 65.1879 39.4568 64.8899 39.5834C64.5919 39.71 64.2716 39.7753 63.948 39.7753C63.6244 39.7753 63.304 39.71 63.006 39.5834C62.708 39.4568 62.4384 39.2714 62.2132 39.0382C61.7545 38.5525 61.4988 37.9088 61.4988 37.2397C61.4988 36.5705 61.7545 35.9269 62.2132 35.4412C62.4384 35.208 62.708 35.0226 63.006 34.896C63.304 34.7693 63.6244 34.7041 63.948 34.7041C64.2716 34.7041 64.5919 34.7693 64.8899 34.896C65.1879 35.0226 65.4575 35.208 65.6828 35.4412C66.1395 35.9279 66.3939 36.5712 66.3939 37.2397C66.3939 37.9082 66.1395 38.5515 65.6828 39.0382ZM62.7689 38.4921C62.9245 38.6503 63.1099 38.7759 63.3143 38.8617C63.5187 38.9474 63.738 38.9915 63.9595 38.9915C64.181 38.9915 64.4003 38.9474 64.6047 38.8617C64.8091 38.7759 64.9945 38.6503 65.1501 38.4921C65.4599 38.1485 65.6314 37.7016 65.6314 37.2382C65.6314 36.7749 65.4599 36.328 65.1501 35.9843C64.9945 35.8261 64.8091 35.7005 64.6047 35.6148C64.4003 35.5291 64.181 35.4849 63.9595 35.4849C63.738 35.4849 63.5187 35.5291 63.3143 35.6148C63.1099 35.7005 62.9245 35.8261 62.7689 35.9843C62.4591 36.328 62.2876 36.7749 62.2876 37.2382C62.2876 37.7016 62.4591 38.1485 62.7689 38.4921Z" fill="white"/>
<path d="M70.7762 38.914H71.283V40.6186H70.5056V39.6825H67.6263V40.6186H66.8517V38.914H67.2894C67.5985 38.4105 67.7424 37.8224 67.7011 37.2325V34.7941H70.7618L70.7762 38.914ZM68.1532 38.914H70.0017V35.5366H68.4901V37.2354C68.5249 37.8148 68.4088 38.3933 68.1532 38.914Z" fill="white"/>
<path d="M74.456 39.7749C74.1272 39.7837 73.8003 39.7231 73.4963 39.5972C73.1923 39.4713 72.9179 39.2828 72.691 39.044C72.2408 38.5511 71.9911 37.9068 71.9911 37.2383C71.9911 36.5697 72.2408 35.9254 72.691 35.4325C73.0705 35.0509 73.5637 34.8038 74.0957 34.7287C74.6278 34.6537 75.1697 34.7547 75.6394 35.0165C75.9954 35.2221 76.2883 35.5219 76.4859 35.8832L75.8122 36.2877C75.6874 36.0465 75.4966 35.846 75.2622 35.7099C75.0178 35.5666 74.7391 35.4927 74.456 35.4961C74.2286 35.4874 74.002 35.5272 73.791 35.6129C73.5801 35.6985 73.3897 35.8281 73.2323 35.993C72.9314 36.3421 72.7658 36.7883 72.7658 37.2498C72.7658 37.7114 72.9314 38.1575 73.2323 38.5066C73.3897 38.6715 73.5801 38.8011 73.791 38.8867C74.002 38.9724 74.2286 39.0122 74.456 39.0035C74.7399 39.0065 75.0194 38.9326 75.2651 38.7897C75.5013 38.6568 75.692 38.4554 75.8122 38.2119L76.4859 38.6106C76.2904 38.9706 76.0007 39.2703 75.648 39.4773C75.2842 39.6814 74.8727 39.7841 74.456 39.7749Z" fill="white"/>
<path d="M80.2405 37.1487C80.4415 37.2545 80.6097 37.4133 80.7271 37.6081C80.846 37.8142 80.9067 38.0489 80.9028 38.2871C80.9073 38.4733 80.873 38.6584 80.8021 38.8305C80.7312 39.0026 80.6252 39.158 80.491 39.2867C80.3579 39.416 80.2006 39.5176 80.0281 39.5855C79.8556 39.6535 79.6714 39.6864 79.4862 39.6825H77.4706V34.7941H79.3451C79.5257 34.7902 79.7052 34.8225 79.8733 34.8889C80.0414 34.9554 80.1946 35.0548 80.324 35.1812C80.4546 35.3054 80.5577 35.4558 80.6266 35.6225C80.6956 35.7892 80.7288 35.9686 80.7243 36.1491C80.7315 36.3427 80.6912 36.5352 80.6068 36.7095C80.5225 36.8838 80.3967 37.0347 80.2405 37.1487ZM79.3393 35.5366H78.2394V36.8223H79.3393C79.4197 36.8232 79.4994 36.8072 79.5733 36.7754C79.6472 36.7435 79.7137 36.6965 79.7683 36.6373C79.8816 36.5119 79.9444 36.3487 79.9444 36.1794C79.9444 36.0101 79.8816 35.8469 79.7683 35.7215C79.7137 35.6623 79.6472 35.6153 79.5733 35.5834C79.4994 35.5516 79.4197 35.5356 79.3393 35.5366ZM79.4862 38.9169C79.5718 38.9184 79.6568 38.9014 79.7353 38.867C79.8138 38.8326 79.884 38.7816 79.9411 38.7175C80.0613 38.5846 80.1279 38.4116 80.1279 38.2322C80.1279 38.0527 80.0613 37.8797 79.9411 37.7468C79.884 37.6827 79.8138 37.6317 79.7353 37.5973C79.6568 37.5629 79.5718 37.5459 79.4862 37.5474H78.2394V38.9169H79.4862Z" fill="white"/>
<path d="M82.6879 38.914H84.7783V39.6825H81.9134V34.7941H84.7438V35.5626H82.6879V36.8338H84.5768V37.5937H82.6879V38.914Z" fill="white"/>
<path d="M88.89 34.7941V35.5626H87.5626V39.6825H86.7881V35.5626H85.4521V34.7941H88.89Z" fill="white"/>
<path d="M93.3587 39.6825H92.4258L90.5628 37.3712V39.6825H89.7883V34.794H90.5628V36.9811L92.3567 34.7883H93.2896L91.3806 37.1689L93.3587 39.6825Z" fill="white"/>
<path d="M97.3782 39.6825L97.047 38.6973H95.0315L94.7033 39.6825H93.8654L95.593 34.7941H96.523L98.2276 39.6825H97.3782ZM95.2936 37.949H96.7908L96.0422 35.7417L95.2936 37.949Z" fill="white"/>
<path d="M56.5985 48.0639V47.3243C56.719 47.3541 56.8455 47.349 56.9632 47.3096C57.0809 47.2702 57.1851 47.1982 57.2637 47.1018C57.4105 46.9111 57.4825 46.5442 57.4825 46.004V43.1755H60.6497V48.0639H59.8752V43.944H58.2628V45.9895C58.2707 46.355 58.2271 46.7197 58.1332 47.0729C58.0696 47.3231 57.9403 47.5515 57.7589 47.7346C57.6096 47.8713 57.43 47.9704 57.2349 48.0235C57.0269 48.075 56.8114 48.0887 56.5985 48.0639Z" fill="white"/>
<path d="M62.6998 47.2983H64.7844V48.0639H61.9051V43.1755H64.7355V43.944H62.6796V45.2152H64.5685V45.978H62.6796L62.6998 47.2983Z" fill="white"/>
<path d="M68.0265 48.1564C67.6972 48.1657 67.3697 48.1055 67.0651 47.9795C66.7605 47.8536 66.4858 47.6648 66.2586 47.4254C65.8084 46.9326 65.5587 46.2883 65.5587 45.6197C65.5587 44.9511 65.8084 44.3069 66.2586 43.814C66.4863 43.5756 66.7613 43.3876 67.0658 43.2622C67.3703 43.1368 67.6975 43.0768 68.0265 43.0859C68.442 43.0826 68.8507 43.1913 69.2099 43.4008C69.5632 43.6023 69.8557 43.8957 70.0564 44.2503L69.3913 44.6576C69.2681 44.4162 69.0782 44.2156 68.8442 44.0798C68.5994 43.9378 68.3208 43.8649 68.038 43.8689C67.8109 43.8598 67.5843 43.8992 67.3734 43.9844C67.1625 44.0695 66.972 44.1985 66.8143 44.3629C66.5117 44.7112 66.3451 45.1577 66.3451 45.6197C66.3451 46.0818 66.5117 46.5282 66.8143 46.8765C66.9714 47.0419 67.1617 47.1717 67.3728 47.2574C67.5838 47.3431 67.8106 47.3827 68.038 47.3734C68.322 47.3764 68.6015 47.3025 68.8471 47.1596C69.0819 47.0258 69.2714 46.8246 69.3913 46.5818L70.0679 46.9805C69.8722 47.3413 69.5814 47.6412 69.2272 47.8473C68.8622 48.0574 68.4472 48.1642 68.0265 48.1564Z" fill="white"/>
<path d="M74.0673 43.1755V43.944H72.737V48.0639H71.9625V43.944H70.6294V43.1755H74.0673Z" fill="white"/>
<path d="M77.773 43.1755H78.5504V48.0639H77.773V45.9375H75.7574V48.0524H74.9772V43.1755H75.7517V45.1805H77.7672L77.773 43.1755Z" fill="white"/>
<path d="M82.662 48.0639V44.7472L80.4363 48.0639H79.8288V43.1755H80.6206V46.4922L82.8434 43.1755H83.451V48.0639H82.662Z" fill="white"/>
<path d="M88.1903 47.2983H88.6827V49H87.9081V48.0639H84.7178V43.1755H85.4924V47.2983H87.4129V43.1755H88.1903V47.2983Z" fill="white"/>
<path d="M89.7048 48.0639V43.1755H90.4822V44.8512H91.4468C91.6546 44.8465 91.861 44.8855 92.0529 44.9656C92.2448 45.0457 92.4179 45.1652 92.5611 45.3163C92.8499 45.6262 93.0106 46.0347 93.0106 46.459C93.0106 46.8833 92.8499 47.2918 92.5611 47.6017C92.4176 47.7523 92.2444 47.8712 92.0526 47.9508C91.8607 48.0304 91.6544 48.0689 91.4468 48.0639H89.7048ZM90.4822 47.3099H91.4468C91.5544 47.3143 91.6617 47.2952 91.7611 47.2538C91.8606 47.2124 91.9498 47.1497 92.0227 47.0701C92.1658 46.8989 92.2443 46.6825 92.2443 46.459C92.2443 46.2355 92.1658 46.0191 92.0227 45.8479C91.9505 45.7673 91.8614 45.7038 91.7618 45.6618C91.6623 45.6198 91.5547 45.6005 91.4468 45.6053H90.4822V47.3099ZM93.4681 48.0639V43.1755H94.2426V48.0639H93.4681Z" fill="white"/>
</svg>
