<svg width="142" height="142" viewBox="0 0 142 142" fill="none" xmlns="http://www.w3.org/2000/svg">
<rect width="142" height="142" rx="31.0625" fill="white"/>
<path d="M101.25 56.4073C103.078 56.4073 104.56 54.9204 104.56 53.0862C104.56 51.252 103.078 49.7651 101.25 49.7651C99.422 49.7651 97.9402 51.252 97.9402 53.0862C97.9402 54.9204 99.422 56.4073 101.25 56.4073Z" fill="#2850DE"/>
<path d="M101.25 39.7536C102.715 39.7536 103.903 38.5618 103.903 37.0915C103.903 35.6213 102.715 34.4294 101.25 34.4294C99.7845 34.4294 98.5967 35.6213 98.5967 37.0915C98.5967 38.5618 99.7845 39.7536 101.25 39.7536Z" fill="#2850DE"/>
<path d="M101.25 73.1567C103.412 73.1567 105.164 71.3982 105.164 69.2289C105.164 67.0597 103.412 65.3012 101.25 65.3012C99.0882 65.3012 97.3357 67.0597 97.3357 69.2289C97.3357 71.3982 99.0882 73.1567 101.25 73.1567Z" fill="#2850DE"/>
<path d="M101.25 89.7361C103.765 89.7361 105.804 87.6904 105.804 85.1669C105.804 82.6433 103.765 80.5976 101.25 80.5976C98.7353 80.5976 96.6965 82.6433 96.6965 85.1669C96.6965 87.6904 98.7353 89.7361 101.25 89.7361Z" fill="#2850DE"/>
<path d="M85.1489 72.5498C86.9769 72.5498 88.4587 71.0629 88.4587 69.2287C88.4587 67.3945 86.9769 65.9076 85.1489 65.9076C83.321 65.9076 81.8391 67.3945 81.8391 69.2287C81.8391 71.0629 83.321 72.5498 85.1489 72.5498Z" fill="#2850DE"/>
<path d="M85.1499 55.7483C86.6151 55.7483 87.8029 54.5564 87.8029 53.0861C87.8029 51.6159 86.6151 50.424 85.1499 50.424C83.6846 50.424 82.4968 51.6159 82.4968 53.0861C82.4968 54.5564 83.6846 55.7483 85.1499 55.7483Z" fill="#2850DE"/>
<path d="M85.1502 89.0944C87.312 89.0944 89.0645 87.3359 89.0645 85.1667C89.0645 82.9975 87.312 81.239 85.1502 81.239C82.9884 81.239 81.2358 82.9975 81.2358 85.1667C81.2358 87.3359 82.9884 89.0944 85.1502 89.0944Z" fill="#2850DE"/>
<path d="M68.8789 88.4882C70.7068 88.4882 72.1887 87.0013 72.1887 85.1671C72.1887 83.3329 70.7068 81.8459 68.8789 81.8459C67.0509 81.8459 65.5691 83.3329 65.5691 85.1671C65.5691 87.0013 67.0509 88.4882 68.8789 88.4882Z" fill="#2850DE"/>
<path d="M68.8786 71.8911C70.3439 71.8911 71.5317 70.6992 71.5317 69.229C71.5317 67.7587 70.3439 66.5668 68.8786 66.5668C67.4134 66.5668 66.2256 67.7587 66.2256 69.229C66.2256 70.6992 67.4134 71.8911 68.8786 71.8911Z" fill="#2850DE"/>
<path d="M53.4687 87.8289C54.934 87.8289 56.1218 86.637 56.1218 85.1668C56.1218 83.6965 54.934 82.5046 53.4687 82.5046C52.0035 82.5046 50.8157 83.6965 50.8157 85.1668C50.8157 86.637 52.0035 87.8289 53.4687 87.8289Z" fill="#2850DE"/>
<path d="M68.8789 106.368C71.0408 106.368 72.7933 104.609 72.7933 102.44C72.7933 100.271 71.0408 98.5123 68.8789 98.5123C66.7171 98.5123 64.9646 100.271 64.9646 102.44C64.9646 104.609 66.7171 106.368 68.8789 106.368Z" fill="#2850DE"/>
<path d="M85.1501 107.009C87.6651 107.009 89.7038 104.963 89.7038 102.44C89.7038 99.9164 87.6651 97.8707 85.1501 97.8707C82.6352 97.8707 80.5964 99.9164 80.5964 102.44C80.5964 104.963 82.6352 107.009 85.1501 107.009Z" fill="#2850DE"/>
<path d="M101.251 107.707C104.15 107.707 106.5 105.349 106.5 102.44C106.5 99.5308 104.15 97.1724 101.251 97.1724C98.3513 97.1724 96.001 99.5308 96.001 102.44C96.001 105.349 98.3513 107.707 101.251 107.707Z" fill="#2850DE"/>
<path d="M53.469 105.761C55.2969 105.761 56.7788 104.274 56.7788 102.44C56.7788 100.606 55.2969 99.1187 53.469 99.1187C51.641 99.1187 50.1592 100.606 50.1592 102.44C50.1592 104.274 51.641 105.761 53.469 105.761Z" fill="#2850DE"/>
<path d="M38.3816 105.102C39.8468 105.102 41.0346 103.91 41.0346 102.44C41.0346 100.97 39.8468 99.778 38.3816 99.778C36.9163 99.778 35.7285 100.97 35.7285 102.44C35.7285 103.91 36.9163 105.102 38.3816 105.102Z" fill="#2850DE"/>
<path d="M68.8789 106.368C71.0408 106.368 72.7933 104.609 72.7933 102.44C72.7933 100.271 71.0408 98.5123 68.8789 98.5123C66.7171 98.5123 64.9646 100.271 64.9646 102.44C64.9646 104.609 66.7171 106.368 68.8789 106.368Z" fill="#2850DE"/>
</svg>
